<?xml version="1.0" encoding="utf-8"?>
<!-- Generator: Adobe Illustrator 18.0.0, SVG Export Plug-In . SVG Version: 6.00 Build 0)  -->
<!DOCTYPE svg PUBLIC "-//W3C//DTD SVG 1.1//EN" "http://www.w3.org/Graphics/SVG/1.1/DTD/svg11.dtd">
<svg version="1.1" id="Layer_1" xmlns="http://www.w3.org/2000/svg" xmlns:xlink="http://www.w3.org/1999/xlink" x="0px" y="0px"
	 viewBox="0 0 400 133" enable-background="new 0 0 400 133" xml:space="preserve">
<g>
	<path fill="#010002" d="M376,60.8C406.4,52,402.8,0,365.8,0h-30.4h-1.3h-50.6v41.4h-23.3V0h-20.7v41.4h-18.6v0h-12.4V0h-12.2h-8.5
		H99.9v20.7h37.8V73H107L75.9,0.1L42.3,83L29.8,60.8C60.2,52,56.6,0,19.7,0H0v20.8h17.7c14.1,0,14.1,23.2,0,23.2H0l30.4,59.6h3.5
		h19.9h2.7l3.9-10.7h33.1l4.1,10.7H120l-4.9-11.5h22.6v11.4h20.7V20.7h29.4v82.8h20.7V62.1h12.4v0h18.6v41.4h20.7V62.2h23.3v41.4
		h53.6V82.8h-32.8V62.2h6.5h20.6v0h0V41.4h0v0h-20.6h-6.5V20.8h29.8h1.3h28.5c14.1,0,14.1,23.2,0,23.2h-17.7l30.4,59.6H400L376,60.8
		z M77.1,48.1L85.7,73H68.1L77.1,48.1z"/>
	<g>
		<path fill="#010002" d="M34.9,120.9c-0.7,0-1.3,0.1-1.8,0.3c-0.6,0.2-1,0.5-1.4,0.9c-0.4,0.4-0.7,0.9-0.9,1.5
			c-0.2,0.6-0.3,1.3-0.3,2.1c0,0.8,0.1,1.5,0.3,2s0.5,1.1,0.9,1.5c0.4,0.4,0.8,0.7,1.4,0.9c0.5,0.2,1.2,0.3,1.9,0.3
			c0.5,0,1,0,1.5-0.1c0.5-0.1,1-0.2,1.5-0.3v2.1c-0.5,0.1-1,0.2-1.5,0.3c-0.5,0.1-1.1,0.1-1.7,0.1c-1.1,0-2.1-0.2-2.9-0.5
			c-0.8-0.3-1.6-0.8-2.1-1.4c-0.6-0.6-1-1.3-1.3-2.1c-0.3-0.8-0.4-1.7-0.4-2.7c0-1,0.2-1.9,0.5-2.8c0.3-0.9,0.7-1.6,1.3-2.2
			c0.6-0.6,1.3-1.1,2.2-1.5s1.8-0.5,2.9-0.6c0.6,0,1.1,0,1.6,0.1c0.5,0.1,0.9,0.2,1.3,0.3v2c-0.5-0.2-1-0.3-1.5-0.3
			C35.8,120.9,35.3,120.9,34.9,120.9z"/>
		<path fill="#010002" d="M54.5,125.7c0,1-0.1,1.9-0.4,2.8s-0.7,1.6-1.3,2.2c-0.5,0.6-1.2,1.1-2,1.4c-0.8,0.3-1.7,0.5-2.7,0.5
			c-1,0-1.9-0.2-2.7-0.5c-0.8-0.3-1.5-0.8-2-1.4c-0.5-0.6-1-1.3-1.3-2.2c-0.3-0.8-0.4-1.8-0.4-2.8c0-1,0.1-1.9,0.4-2.8
			c0.3-0.8,0.7-1.6,1.3-2.2c0.5-0.6,1.2-1.1,2-1.4c0.8-0.3,1.7-0.5,2.7-0.5c1,0,1.9,0.2,2.7,0.5c0.8,0.3,1.5,0.8,2,1.4
			c0.5,0.6,1,1.3,1.3,2.2S54.5,124.7,54.5,125.7z M52.1,125.7c0-0.8-0.1-1.5-0.3-2.1c-0.2-0.6-0.5-1.1-0.8-1.5
			c-0.3-0.4-0.8-0.7-1.2-0.9c-0.5-0.2-1-0.3-1.6-0.3c-0.6,0-1.1,0.1-1.6,0.3c-0.5,0.2-0.9,0.5-1.2,0.9c-0.3,0.4-0.6,0.9-0.8,1.5
			c-0.2,0.6-0.3,1.3-0.3,2.1c0,0.8,0.1,1.5,0.3,2.1c0.2,0.6,0.5,1.1,0.8,1.5c0.3,0.4,0.8,0.7,1.2,0.9c0.5,0.2,1,0.3,1.6,0.3
			c0.6,0,1.1-0.1,1.6-0.3c0.5-0.2,0.9-0.5,1.2-0.9c0.3-0.4,0.6-0.9,0.8-1.5C52,127.2,52.1,126.5,52.1,125.7z"/>
		<path fill="#010002" d="M66.7,122.6c-0.3,1.2-0.6,2.5-0.9,3.8l-1.5,5.9h-2.4l-4.2-13.2h2.6l1.6,5.3c0.5,1.6,0.9,3.1,1.2,4.5h0.1
			c0.3-1.4,0.6-2.9,1-4.4l1.4-5.3H68l1.4,5.3c0.4,1.5,0.7,3,1,4.4h0.1c0.4-1.6,0.7-3.1,1.2-4.5l1.6-5.3h2.6l-4.2,13.2h-2.4l-1.5-5.9
			C67.3,125,67,123.8,66.7,122.6L66.7,122.6z"/>
		<path fill="#010002" d="M91.8,125.7c0,1-0.1,1.9-0.4,2.8s-0.7,1.6-1.3,2.2c-0.5,0.6-1.2,1.1-2,1.4c-0.8,0.3-1.7,0.5-2.7,0.5
			c-1,0-1.9-0.2-2.7-0.5c-0.8-0.3-1.5-0.8-2-1.4c-0.5-0.6-1-1.3-1.3-2.2s-0.4-1.8-0.4-2.8c0-1,0.1-1.9,0.4-2.8s0.7-1.6,1.3-2.2
			c0.5-0.6,1.2-1.1,2-1.4c0.8-0.3,1.7-0.5,2.7-0.5c1,0,1.9,0.2,2.7,0.5c0.8,0.3,1.5,0.8,2,1.4c0.5,0.6,1,1.3,1.3,2.2
			S91.8,124.7,91.8,125.7z M89.3,125.7c0-0.8-0.1-1.5-0.3-2.1c-0.2-0.6-0.5-1.1-0.8-1.5c-0.3-0.4-0.8-0.7-1.2-0.9
			c-0.5-0.2-1-0.3-1.6-0.3c-0.6,0-1.1,0.1-1.6,0.3c-0.5,0.2-0.9,0.5-1.2,0.9s-0.6,0.9-0.8,1.5c-0.2,0.6-0.3,1.3-0.3,2.1
			c0,0.8,0.1,1.5,0.3,2.1c0.2,0.6,0.5,1.1,0.8,1.5c0.3,0.4,0.8,0.7,1.2,0.9c0.5,0.2,1,0.3,1.6,0.3c0.6,0,1.1-0.1,1.6-0.3
			c0.5-0.2,0.9-0.5,1.2-0.9c0.3-0.4,0.6-0.9,0.8-1.5C89.2,127.2,89.3,126.5,89.3,125.7z"/>
		<path fill="#010002" d="M106.1,123.1c0,0.9-0.3,1.7-0.8,2.3c-0.5,0.6-1.3,1.1-2.4,1.4v0l3.9,5.4H104l-3.6-5.1h-1.7v5.1h-2.4v-13.2
			h4c0.7,0,1.3,0,1.9,0.1c0.6,0.1,1.1,0.2,1.5,0.3c0.8,0.3,1.4,0.7,1.8,1.3C105.9,121.5,106.1,122.2,106.1,123.1z M100,125.2
			c0.6,0,1,0,1.4-0.1c0.4,0,0.7-0.1,1-0.2c0.5-0.2,0.8-0.4,1-0.8c0.2-0.3,0.3-0.7,0.3-1.1c0-0.4-0.1-0.7-0.2-0.9s-0.4-0.5-0.8-0.6
			c-0.2-0.1-0.5-0.2-0.9-0.2c-0.3-0.1-0.8-0.1-1.3-0.1h-1.7v4H100z"/>
		<path fill="#010002" d="M111,132.3v-13.2h2.4v6h0l5-6h3l-5.5,6.5l6,6.6h-3.1l-5.3-6h0v6H111z"/>
		<path fill="#010002" d="M125.8,132.3v-13.2h2.4v13.2H125.8z"/>
		<path fill="#010002" d="M140.3,125.2c0.9,1.3,1.7,2.5,2.3,3.6h0.1c-0.1-1.7-0.1-3-0.1-3.7v-6h2.4v13.2h-2.5l-4.3-6.1
			c-0.8-1.1-1.5-2.3-2.3-3.7h-0.1c0.1,1.6,0.1,2.9,0.1,3.8v6h-2.4v-13.2h2.5L140.3,125.2z"/>
		<path fill="#010002" d="M158.3,127.3h-3v-2h5.4v6.6c-0.2,0.1-0.4,0.1-0.8,0.2c-0.3,0.1-0.6,0.2-1,0.2c-0.4,0.1-0.8,0.1-1.2,0.2
			c-0.4,0-0.8,0.1-1.2,0.1c-1.2,0-2.2-0.2-3.1-0.5c-0.9-0.3-1.6-0.8-2.2-1.3c-0.6-0.6-1-1.3-1.3-2.1c-0.3-0.8-0.4-1.7-0.4-2.6
			c0-0.7,0.1-1.3,0.2-2c0.2-0.6,0.4-1.2,0.7-1.7c0.3-0.5,0.7-1,1.1-1.4c0.4-0.4,0.9-0.8,1.5-1.1c0.5-0.3,1.1-0.5,1.8-0.7
			c0.7-0.2,1.4-0.2,2.1-0.2c0.7,0,1.3,0,1.9,0.1c0.6,0.1,1.1,0.2,1.5,0.3v2.1c-0.5-0.2-1-0.3-1.6-0.4c-0.5-0.1-1-0.1-1.6-0.1
			c-0.7,0-1.4,0.1-2,0.3c-0.6,0.2-1.2,0.5-1.6,0.9c-0.5,0.4-0.8,0.9-1.1,1.5c-0.3,0.6-0.4,1.3-0.4,2.1c0,1.6,0.4,2.7,1.2,3.5
			c0.8,0.8,2,1.2,3.4,1.2c0.3,0,0.6,0,0.9,0c0.3,0,0.6-0.1,0.8-0.1V127.3z"/>
	</g>
</g>
</svg>
